<svg xmlns="http://www.w3.org/2000/svg" viewBox="0 0 192 192" width="192" height="192">
  <defs>
    <radialGradient id="bg" cx="50%" cy="40%" r="70%">
      <stop offset="0%" stop-color="#2c2238"/>
      <stop offset="100%" stop-color="#0f0a18"/>
    </radialGradient>
    <linearGradient id="petal" x1="0%" y1="0%" x2="100%" y2="100%">
      <stop offset="0%" stop-color="#e8b8c0"/>
      <stop offset="100%" stop-color="#d4a96e"/>
    </linearGradient>
  </defs>
  <rect width="192" height="192" rx="42" fill="url(#bg)"/>
  <g transform="translate(96 96)" fill="url(#petal)">
    <!-- 4 petals -->
    <path d="M 0 -52 C -28 -42, -28 -14, 0 0 C 28 -14, 28 -42, 0 -52 Z" opacity="0.95"/>
    <path d="M 52 0 C 42 -28, 14 -28, 0 0 C 14 28, 42 28, 52 0 Z" opacity="0.92" transform="rotate(45)"/>
    <path d="M 0 52 C 28 42, 28 14, 0 0 C -28 14, -28 42, 0 52 Z" opacity="0.88"/>
    <path d="M -52 0 C -42 28, -14 28, 0 0 C -14 -28, -42 -28, -52 0 Z" opacity="0.92" transform="rotate(45)"/>
  </g>
  <!-- Center -->
  <circle cx="96" cy="96" r="9" fill="#fbf6ee"/>
</svg>
